<?xml version="1.0" encoding="utf-8"?>
<!DOCTYPE svg PUBLIC "-//W3C//DTD SVG 1.1//EN" "http://www.w3.org/Graphics/SVG/1.1/DTD/svg11.dtd">
<svg version="1.1" id="logo" xmlns="http://www.w3.org/2000/svg" xmlns:xlink="http://www.w3.org/1999/xlink"
  viewBox="0 0 48.19 49.182" xml:space="preserve">
  <style>
    #dice {
      fill: #98be31;
    }
    #arrow {
      fill: #fff;
    }
  </style>


  <path id="dice" d="M48.19,13.465v22.182c0,7.441-6.024,13.536-13.252,13.536H13.253C5.953,49.182,0,43.088,0,35.646
    V13.465C0,6.024,5.953,0,13.253,0h21.685C42.167,0,48.19,6.024,48.19,13.465z M39.261,24.733c0-8.362-6.662-15.307-14.882-15.307
    c-7.37,0-13.536,5.528-14.741,12.827H4.394l8.362,14.811l8.504-14.811h-4.677c1.063-3.402,4.181-5.882,7.795-5.882
    c4.465,0,8.221,3.756,8.221,8.362c0,4.677-3.756,8.363-8.221,8.363v6.874C32.599,39.969,39.261,33.166,39.261,24.733z"/>
  <path id="arrow" d="M24.379,33.095v6.874c8.221,0,14.882-6.803,14.882-15.237c0-8.362-6.662-15.307-14.882-15.307
    c-7.37,0-13.536,5.528-14.741,12.827H4.394l8.362,14.811l8.504-14.811h-4.677c1.063-3.402,4.181-5.882,7.795-5.882
    c4.465,0,8.221,3.756,8.221,8.362C32.599,29.41,28.843,33.095,24.379,33.095z" />
</svg>
